<?xml version="1.0" standalone="no"?>
<!DOCTYPE svg PUBLIC "-//W3C//DTD SVG 20010904//EN"
 "http://www.w3.org/TR/2001/REC-SVG-20010904/DTD/svg10.dtd">
<svg version="1.0" xmlns="http://www.w3.org/2000/svg"
 width="24.000000pt" height="24.000000pt" viewBox="0 0 24.000000 24.000000"
 preserveAspectRatio="xMidYMid meet">

<g transform="translate(0.000000,24.000000) scale(0.100000,-0.100000)"
fill="#000000" stroke="none">
<path d="M63 202 c-29 -14 -53 -29 -53 -32 0 -3 25 -18 55 -33 l55 -27 55 27
c30 15 55 30 55 33 0 5 -106 61 -113 59 -1 0 -26 -12 -54 -27z m92 -9 c19 -9
35 -20 35 -23 0 -3 -16 -14 -35 -23 -33 -16 -37 -16 -70 0 -19 9 -35 20 -35
23 0 5 51 35 67 39 1 1 18 -7 38 -16z"/>
<path d="M10 122 c0 -4 25 -20 55 -35 l55 -27 55 27 c30 15 55 31 55 35 0 12
-6 10 -60 -17 l-50 -25 -50 25 c-54 27 -60 29 -60 17z"/>
<path d="M10 72 c0 -4 25 -20 55 -35 l55 -27 55 27 c30 15 55 31 55 35 0 12
-6 10 -60 -17 l-50 -25 -50 25 c-54 27 -60 29 -60 17z"/>
</g>
</svg>
